<svg width="1501" height="364" viewBox="0 0 1501 364" fill="none" xmlns="http://www.w3.org/2000/svg">
<g clip-path="url(#clip0_4302_102)">
<g clip-path="url(#clip1_4302_102)">
<g clip-path="url(#clip2_4302_102)">
<g clip-path="url(#clip3_4302_102)">
<g clip-path="url(#clip4_4302_102)">
<g clip-path="url(#clip5_4302_102)">
<g clip-path="url(#clip6_4302_102)">
<path d="M486.478 250.836C469.537 247.401 455.25 238.189 443.618 223.199C431.985 208.249 426.169 189.083 426.169 165.701C426.169 142.28 432.922 121.865 446.428 104.455C459.895 87.0066 478.632 78.2238 502.639 78.1067C526.84 78.1067 546.28 86.1283 560.957 102.172C575.634 118.176 583.031 138.903 583.148 164.354V164.588C583.148 188.126 577.625 206.883 566.578 220.857C555.492 234.832 544.094 243.771 532.383 247.674C567.436 265.669 598.918 278.805 626.828 287.08C654.699 295.316 676.734 299.434 692.934 299.434C709.133 299.434 720.941 298.576 728.358 296.858C735.813 295.141 742.586 293.286 748.675 291.296V298.146C744.577 302.713 736.711 306.383 725.079 309.154C713.446 311.926 699.921 313.35 684.502 313.428C638.753 313.428 572.745 292.564 486.478 250.836ZM447.599 162.188C447.599 189.824 453.318 210.025 464.755 222.789C476.192 235.554 490.011 241.995 506.21 242.112C525.181 242.112 539.117 235.027 548.017 220.857C556.956 206.727 561.464 188.985 561.542 167.633C561.542 140.855 555.609 120.928 543.742 107.851C531.876 94.8136 517.55 88.2362 500.765 88.1191H500.648C484.643 88.1191 471.801 94.9893 462.12 108.73C452.44 122.431 447.599 140.25 447.599 162.188ZM601.124 139.47V133.731H633.854V193.513C633.854 194.84 633.718 199.408 633.444 207.215C632.664 229.425 640.432 240.628 656.748 240.824C665.804 240.824 673.67 237.193 680.345 229.933C687.02 222.711 690.357 214.514 690.357 205.341V170.619C690.357 157.933 689.772 149.872 688.601 146.437C687.078 141.87 681.652 139.587 672.323 139.587V133.731H708.04V217.637C708.04 228.02 710.187 234.227 714.481 236.256C716.472 237.115 720.277 237.389 725.899 237.076L726.66 242.112L695.451 252.827L690.357 233.973L685.615 238.54C674.451 248.143 662.721 253.002 650.425 253.12C635.201 253.12 625.149 247.303 620.27 235.671C617.421 228.801 615.996 219.452 615.996 207.624V162.89C615.996 151.18 613.556 143.744 608.677 140.582C606.491 139.255 603.973 138.884 601.124 139.47ZM747.621 140.582L782.811 131.741V218.808C782.811 227.552 783.436 233.231 784.685 235.847C785.895 238.501 788.803 240.297 793.409 241.233L801.841 242.814V248.67H747.621V242.639L757.517 240.531C761.03 239.75 763.216 238.657 764.075 237.252C764.855 235.612 765.246 232.119 765.246 226.771V162.481C765.246 155.884 764.953 151.883 764.367 150.477C763.04 147.12 757.692 145.442 748.324 145.442L747.621 140.582ZM758.336 75.8231C758.336 72.5052 759.469 69.6751 761.733 67.333C763.958 64.991 766.749 63.8199 770.106 63.8199C773.345 63.8199 776.117 64.991 778.42 67.333C780.762 69.6751 781.933 72.5052 781.933 75.8231C781.933 79.063 780.762 81.815 778.42 84.079C776.117 86.304 773.345 87.4165 770.106 87.4165C766.749 87.4165 763.958 86.304 761.733 84.079C759.469 81.815 758.336 79.063 758.336 75.8231ZM818.411 133.731H904.307V141.46L838.846 237.662H887.269C894.529 237.662 899.116 232.997 901.028 223.668L901.731 217.52H909.167L908.699 248.67H815.542V239.535L883.873 144.037C870.718 143.841 856.802 143.841 842.125 144.037C834.786 144.232 829.341 148.565 825.789 157.035C825.32 158.089 824.989 158.811 824.793 159.202H818.411V133.731ZM1021.76 85.5428V78.5751H1077.68V85.5428C1071.59 85.5428 1067.28 87.0066 1064.74 89.9342C1062.2 92.8228 1060.93 95.4577 1060.93 97.8388C1060.93 100.22 1061.42 102.777 1062.4 105.509C1063.34 108.242 1064.53 111.794 1065.97 116.166L1100.57 222.38L1148.41 99.7125C1150.83 93.623 1150.29 89.7391 1146.77 88.0606C1143.3 86.3821 1138.05 85.5428 1131.02 85.5428V78.5751H1185.59V85.5428C1181.03 85.738 1177.43 86.1283 1174.82 86.7139C1172.2 87.2994 1170.08 88.2167 1168.44 89.4658C1166.84 90.754 1165.55 92.4325 1164.57 94.5013C1163.64 96.5311 1162.54 99.127 1161.29 102.289L1102.86 248.67H1091.85L1050.81 120.03L1003.61 248.67H992.897L943.713 113.706C939.341 101.723 935.672 94.0329 932.705 90.6369C929.778 87.2408 923.395 85.5428 913.559 85.5428V78.5751H977.908V85.5428C966.549 85.5428 960.869 87.9825 960.869 92.8619C960.869 93.9939 961.025 95.4382 961.337 97.1947C961.611 98.9513 962.001 100.864 962.508 102.933C963.055 104.963 963.66 107.129 964.324 109.432C964.987 111.735 965.709 113.98 966.49 116.166L1001.91 221.384L1044.77 101.41C1043.45 97.8193 1042.22 94.9697 1041.09 92.8619C1039.95 90.754 1038.57 89.1535 1036.93 88.0606C1035.33 86.9676 1033.34 86.2845 1030.96 86.0112C1028.57 85.6989 1025.51 85.5428 1021.76 85.5428ZM1260.07 143.861C1246.33 143.861 1234.37 147.491 1224.18 154.752V218.808C1224.18 227.552 1224.82 233.231 1226.11 235.847C1227.4 238.501 1230.29 240.297 1234.78 241.233L1243.03 242.814V248.67H1189.05V242.639L1198.88 240.531C1202.4 239.75 1204.54 238.657 1205.32 237.252C1206.07 235.612 1206.44 232.119 1206.44 226.771V82.1468C1206.44 75.667 1206.2 71.8025 1205.73 70.5534C1204.49 67.0403 1199.16 65.2837 1189.75 65.2837L1189.05 60.4239L1224.18 51.5239V144.329C1240.1 135.468 1253.92 131.038 1265.63 131.038C1280.31 131.038 1290.19 137.654 1295.26 150.887C1297.53 157.172 1298.72 164.706 1298.83 173.488V219.101C1298.83 227.844 1299.48 233.524 1300.77 236.139C1302.01 238.794 1304.84 240.531 1309.26 241.351L1317.69 243.107V248.962H1263.64V242.814L1273.36 240.824C1276.99 240.043 1279.18 238.891 1279.92 237.369C1280.7 235.769 1281.09 232.294 1281.09 226.947V178.055C1280.9 155.454 1273.89 144.056 1260.07 143.861ZM1336.25 140.582L1371.44 131.741V218.808C1371.44 227.552 1372.04 233.231 1373.25 235.847C1374.5 238.501 1377.41 240.297 1381.98 241.233L1390.41 242.814V248.67H1336.25V242.639L1346.08 240.531C1349.64 239.75 1351.84 238.657 1352.7 237.252C1353.44 235.612 1353.81 232.119 1353.81 226.771V162.481C1353.81 155.884 1353.54 151.883 1352.99 150.477C1351.63 147.12 1346.28 145.442 1336.95 145.442L1336.25 140.582ZM1346.96 75.8231C1346.96 72.5052 1348.08 69.6751 1350.3 67.333C1352.56 64.991 1355.36 63.8199 1358.67 63.8199C1361.91 63.8199 1364.7 64.991 1367.05 67.333C1369.39 69.6751 1370.56 72.5052 1370.56 75.8231C1370.56 79.063 1369.39 81.815 1367.05 84.079C1364.7 86.304 1361.91 87.4165 1358.67 87.4165C1355.36 87.4165 1352.56 86.304 1350.3 84.079C1348.08 81.815 1346.96 79.063 1346.96 75.8231ZM1406.98 133.731H1492.93V141.46L1427.41 237.662H1475.9C1483.16 237.662 1487.72 232.997 1489.6 223.668L1490.36 217.52H1497.79L1497.33 248.67H1404.11V239.535L1472.44 144.037C1459.29 143.841 1445.37 143.841 1430.69 144.037C1423.39 144.232 1417.97 148.565 1414.42 157.035C1413.95 158.089 1413.61 158.811 1413.42 159.202H1406.98V133.731Z" fill="#4F46E5"/>
</g>
</g>
</g>
</g>
<g clip-path="url(#clip7_4302_102)">
<path d="M209.774 267.056C209.774 268.645 208.993 270.036 207.791 270.893C207.759 270.917 207.727 270.941 207.703 270.961C207.26 271.283 206.753 271.536 206.198 271.693L192.159 276.419H198.638C199.828 276.419 200.922 277.038 201.533 278.06C202.137 279.085 202.157 280.348 201.598 281.394C197.918 288.118 190.888 292.296 183.243 292.296C175.589 292.296 168.559 288.118 164.888 281.394C164.373 280.449 164.349 279.318 164.795 278.349C165.157 276.918 166.227 275.695 167.84 275.224L178.115 271.774H161.409C158.811 271.774 156.699 269.662 156.699 267.06C156.699 265.874 157.142 264.784 157.87 263.96C158.469 263.147 159.354 262.504 160.42 262.19L175.284 257.706H161.409C158.811 257.706 156.699 255.599 156.699 252.997C156.699 250.394 158.811 248.283 161.409 248.283H205.072C207.115 248.283 208.853 249.586 209.508 251.408C209.593 251.589 209.669 251.778 209.725 251.975C210.417 254.332 208.957 256.841 206.46 257.569L190.622 262.363H205.08C207.666 262.347 209.774 264.462 209.774 267.056Z" fill="#4F46E5"/>
<path d="M183.287 52.1373L190.526 87.2104L204.932 54.4256L204.723 90.2267L225.595 61.1579L217.95 96.1225L244.433 72.0125L229.689 104.64L260.588 86.579L239.398 115.402L273.373 104.158L246.637 127.962L282.212 124.037L251.129 141.757L286.749 145.296L252.645 156.178L286.749 167.037L251.129 170.596L282.212 188.312L246.637 184.37L273.373 208.179L239.398 196.93L260.588 225.798L233.546 209.981L261.239 261.048L224.952 225.062L249.588 296.704L210.755 235.225C211.302 234.231 211.604 233.145 211.604 232.048C211.604 220.727 215.127 212.856 219.699 205.613C228.064 192.325 239.944 181.141 239.944 154.626C239.944 123.337 214.572 97.9725 183.287 97.9725C151.994 97.9725 126.633 123.337 126.633 154.626C126.633 195.583 154.95 199.954 154.95 232.048C154.95 233.025 155.211 233.994 155.658 234.903L117.005 295.176L141.232 225.593L110.49 256.234L134.5 209.112L105.982 225.794L127.18 196.93L93.197 208.179L119.937 184.387L84.3372 188.316L115.441 170.596L79.8249 167.057L113.925 156.174L79.8249 145.292L115.433 141.757L84.3292 124.037L119.929 127.962L93.189 104.158L127.172 115.402L105.974 86.5629L136.881 104.644L122.137 72.0205L148.612 96.1104L140.967 61.1378L161.839 90.2227L161.658 54.4216L176.04 87.2064L183.287 52.1373ZM282.212 124.037L282.233 124.041ZM183.287 12.3467L175.408 50.5085L173.269 60.8603L169.026 51.1882L153.422 15.6163L153.619 54.4618L153.671 65.0389L147.506 56.4445L124.795 24.7938L133.112 62.851L135.372 73.1788L127.554 66.0644L98.8073 39.9113L114.81 75.3304L119.161 84.9543L110.04 79.6175L76.4507 59.9635L99.495 91.3206L105.757 99.8385L95.7186 96.5166L58.7955 84.2987L87.8442 110.158L95.7548 117.2L85.218 116.038L46.5776 111.779L80.3518 131.023L89.5212 136.247L79.0367 137.289L40.3359 141.133L77.3878 152.957L87.4742 156.174L77.3878 159.392L40.344 171.211L79.0367 175.06L89.5292 176.102L80.3598 181.322L46.5696 200.57L85.222 196.307L95.7428 195.145L87.8522 202.166L58.7673 228.046L95.7267 215.812L105.777 212.486L99.503 221.032L76.4909 252.369L110.048 232.735L114.878 229.908L103.328 252.578L80.396 297.585L116.173 261.929L122.133 255.981L109.408 292.526L87.0157 356.833L123.774 299.511L162.426 239.238L162.989 231.585C162.865 214.26 155.654 203.916 148.68 193.91C141.477 183.578 134.677 173.818 134.677 154.618C134.677 127.813 156.482 106.008 183.287 106.008C210.091 106.008 231.901 127.813 231.901 154.618C231.901 173.814 225.096 183.574 217.894 193.902C216.229 196.291 214.507 198.76 212.895 201.322C208.33 208.553 203.661 217.807 203.564 231.609L203.958 239.516L242.788 301.003L279.639 359.35L257.198 294.09L243.769 255.052L255.581 266.759L294.326 305.182L268.313 257.215L254.35 231.464L256.53 232.739L290.059 252.349L267.075 221.036L260.797 212.486L270.847 215.812L307.778 228.038L278.726 202.166L270.835 195.141L281.324 196.307L320.004 200.59L286.194 181.322L277.012 176.09L287.549 175.036L326.246 171.167L289.186 159.368L279.128 156.166L289.19 152.957L326.242 141.137L287.545 137.289L277.032 136.243L286.194 131.019L319.952 111.779L281.328 116.038L270.819 117.196L278.726 110.158L307.774 84.2947L270.851 96.5126L260.825 99.8305L267.071 91.3367L290.107 60.0037L256.53 79.6295L247.409 84.9623L251.764 75.3223L267.779 39.8792L239.019 66.0604L231.205 73.1788L233.462 62.8712L241.774 24.8421L219.068 56.4606L212.915 65.0228L212.979 54.4658L213.204 15.6042L197.572 51.1801L193.309 60.8804L191.169 50.5045L183.287 12.3467Z" fill="#4F46E5"/>
</g>
</g>
</g>
</g>
<defs>
<clipPath id="clip0_4302_102">
<rect width="1500" height="363" fill="white" transform="translate(0.0908203 0.976074)"/>
</clipPath>
<clipPath id="clip1_4302_102">
<rect width="1495.56" height="361.952" fill="white" transform="translate(2.31079 1.50012)"/>
</clipPath>
<clipPath id="clip2_4302_102">
<rect width="1495.56" height="361.952" fill="white" transform="translate(2.31079 1.50012)"/>
</clipPath>
<clipPath id="clip3_4302_102">
<rect width="1071.78" height="261.905" fill="white" transform="translate(426.092 51.5239)"/>
</clipPath>
<clipPath id="clip4_4302_102">
<rect width="1071.78" height="261.905" fill="white" transform="translate(426.092 51.5239)"/>
</clipPath>
<clipPath id="clip5_4302_102">
<rect width="1071.78" height="261.905" fill="white" transform="translate(426.092 51.5239)"/>
</clipPath>
<clipPath id="clip6_4302_102">
<rect width="1071.78" height="261.905" fill="white" transform="translate(426.092 51.5239)"/>
</clipPath>
<clipPath id="clip7_4302_102">
<rect width="361.952" height="361.952" fill="white" transform="translate(2.31079 1.50012)"/>
</clipPath>
</defs>
</svg>
